<?xml version="1.0" encoding="UTF-8"?>
<svg version="1.1" xmlns="http://www.w3.org/2000/svg" width="360" height="360">
<path d="M0 0 C0.83903366 -0.00807175 1.67806732 -0.01614349 2.54252625 -0.02445984 C4.31845062 -0.03824965 6.09440094 -0.04899447 7.87036133 -0.05688477 C9.65332024 -0.06831502 11.43624742 -0.0886217 13.21899414 -0.1184082 C30.92675824 -0.41345519 45.68919004 2.99068429 62.32421875 8.98828125 C63.48759766 9.39949219 64.65097656 9.81070313 65.84960938 10.234375 C68.65656686 11.22778382 71.46042815 12.22902836 74.26171875 13.23828125 C74.26171875 13.89828125 74.26171875 14.55828125 74.26171875 15.23828125 C71.53211517 14.9503096 68.80300576 14.6588364 66.07421875 14.36328125 C64.83236816 14.22901733 64.83236816 14.22901733 63.56542969 14.09204102 C59.01521408 13.58700061 54.5214488 12.97444183 50.01171875 12.17578125 C13.32426948 6.40004931 -24.51225301 14.24751281 -54.73828125 36.23828125 C-59.27924759 39.67825492 -63.55052872 43.37973298 -67.73828125 47.23828125 C-68.68316406 48.10066406 -69.62804687 48.96304688 -70.6015625 49.8515625 C-95.32483174 73.45581531 -110.89879303 108.07469385 -111.95703125 142.21875 C-112.7136836 180.97138778 -101.2485971 216.46615388 -74.73828125 245.23828125 C-73.87589844 246.18316406 -73.01351562 247.12804687 -72.125 248.1015625 C-65.04202439 255.52032362 -57.12714777 261.3853204 -48.73828125 267.23828125 C-49.11194824 266.80547852 -49.48561523 266.37267578 -49.87060547 265.92675781 C-60.93586444 253.07024676 -70.14775993 241.90311162 -69.96484375 224.0078125 C-69.33649529 216.32679425 -67.83980585 208.30436338 -64.73828125 201.23828125 C-60.36294173 202.7210352 -57.14104946 204.99822633 -53.48828125 207.80078125 C-52.946875 208.21263672 -52.40546875 208.62449219 -51.84765625 209.04882812 C-47.95380704 212.02275546 -47.95380704 212.02275546 -46.73828125 213.23828125 C-46.37476562 212.02914062 -46.01125 210.82 -45.63671875 209.57421875 C-37.86976048 184.10497011 -26.66876727 162.34443155 -5.73828125 145.23828125 C-6.16518103 143.06862589 -6.62746471 140.91682014 -7.140625 138.765625 C-7.51907646 137.16524531 -7.85083865 135.55249338 -8.1171875 133.9296875 C-8.67719522 131.52650475 -9.11106186 130.1105081 -10.73828125 128.23828125 C-13.77032707 127.33483736 -16.57570575 126.99072978 -19.73046875 126.78515625 C-24.60190195 125.89944112 -26.90477063 123.39575401 -29.73828125 119.4609375 C-30.39828125 118.41808594 -31.05828125 117.37523437 -31.73828125 116.30078125 C-36.77720996 108.63342053 -43.11545034 102.53088791 -49.73828125 96.23828125 C-50.74090629 95.2409132 -51.74159553 94.24158458 -52.73828125 93.23828125 C-52.07828125 92.57828125 -51.41828125 91.91828125 -50.73828125 91.23828125 C-41.19380668 96.74326363 -33.48597078 103.49059172 -25.73828125 111.23828125 C-31.97389873 102.42754529 -39.67336212 95.61808706 -47.92578125 88.73828125 C-48.85390625 87.91328125 -49.78203125 87.08828125 -50.73828125 86.23828125 C-50.73828125 85.57828125 -50.73828125 84.91828125 -50.73828125 84.23828125 C-46.01378546 84.74258136 -42.8417013 86.92770968 -39.11328125 89.67578125 C-38.50661621 90.11519043 -37.89995117 90.55459961 -37.27490234 91.00732422 C-31.38470768 95.35209468 -26.0175058 100.17453525 -20.73828125 105.23828125 C-25.86891702 97.4690328 -32.56322747 92.01011919 -39.73828125 86.23828125 C-40.75019531 85.41972656 -41.76210937 84.60117188 -42.8046875 83.7578125 C-45.1075207 81.90702906 -47.41756933 80.0665622 -49.73828125 78.23828125 C-49.40828125 77.57828125 -49.07828125 76.91828125 -48.73828125 76.23828125 C-35.2967574 80.18933479 -23.24418882 91.21854084 -13.73828125 101.23828125 C-22.43771003 90.86473559 -32.0190989 82.15949574 -43.21655273 74.5637207 C-44.75703797 73.5019233 -46.25248591 72.37534795 -47.73828125 71.23828125 C-47.73828125 70.57828125 -47.73828125 69.91828125 -47.73828125 69.23828125 C-42.91769535 69.83387487 -39.26576592 71.87417212 -35.11328125 74.23828125 C-34.4061499 74.63982422 -33.69901855 75.04136719 -32.97045898 75.45507812 C-26.68055886 79.11746121 -21.12149043 83.33282122 -15.73828125 88.23828125 C-14.50271484 89.33462891 -14.50271484 89.33462891 -13.2421875 90.453125 C-7.45538603 95.85984099 -2.45175527 101.70675916 -1.40625 109.8125 C-1.35189458 113.03923542 -1.50139496 116.09369982 -2.15625 119.2578125 C-3.34574674 125.04041544 -1.5481679 128.64097979 1.1328125 133.8203125 C2.26171875 136.23828125 2.26171875 136.23828125 2.26171875 139.23828125 C4.80227507 138.49221863 4.80227507 138.49221863 7.26171875 136.23828125 C8.1454812 133.75196081 8.1454812 133.75196081 8.76171875 130.92578125 C10.18881169 125.0068548 12.03747724 121.47551006 17.17578125 117.91015625 C27.9125609 111.78539535 42.0470682 109.67953299 54.26171875 109.23828125 C55.03644531 109.20992188 55.81117188 109.1815625 56.609375 109.15234375 C61.89598783 109.06166428 67.01946398 109.5725981 72.26171875 110.23828125 C72.26171875 111.22828125 72.26171875 112.21828125 72.26171875 113.23828125 C71.55265381 113.30821289 70.84358887 113.37814453 70.11303711 113.45019531 C56.86134666 114.78664468 43.97112928 116.1066742 31.26171875 120.23828125 C34.26928477 119.73852103 37.27541112 119.23585139 40.27734375 118.703125 C49.99573592 117.11860454 59.4387865 117.03781324 69.26171875 117.23828125 C69.26171875 118.22828125 69.26171875 119.21828125 69.26171875 120.23828125 C68.6275 120.33625 67.99328125 120.43421875 67.33984375 120.53515625 C60.51997174 121.62784293 53.73071814 122.86733319 46.94921875 124.17578125 C46.10198242 124.33336914 45.25474609 124.49095703 44.38183594 124.65332031 C39.31850448 125.64687218 34.92775854 127.02805187 30.26171875 129.23828125 C31.88013672 128.80515625 31.88013672 128.80515625 33.53125 128.36328125 C44.95360993 125.47746998 55.51108817 124.76929821 67.26171875 125.23828125 C67.26171875 125.89828125 67.26171875 126.55828125 67.26171875 127.23828125 C66.50890625 127.4084375 65.75609375 127.57859375 64.98046875 127.75390625 C61.40463368 128.56975212 57.83215917 129.39920164 54.26171875 130.23828125 C53.23546387 130.47901367 53.23546387 130.47901367 52.18847656 130.72460938 C50.08602538 131.22171188 47.98617576 131.72869474 45.88671875 132.23828125 C45.23380859 132.39200195 44.58089844 132.54572266 43.90820312 132.70410156 C39.43385892 133.80334279 35.43840993 135.33880413 31.26171875 137.23828125 C31.8350293 137.08681641 32.40833984 136.93535156 32.99902344 136.77929688 C54.06072611 131.28787821 54.06072611 131.28787821 64.26171875 132.23828125 C64.26171875 133.22828125 64.26171875 134.21828125 64.26171875 135.23828125 C63.71870117 135.36356201 63.17568359 135.48884277 62.61621094 135.61791992 C45.89856285 139.46232431 45.89856285 139.46232431 30.25390625 146.36328125 C26.4506362 148.03373712 22.32619069 147.69561486 18.26171875 147.23828125 C16.2542006 146.25346103 14.25237416 145.25675611 12.26171875 144.23828125 C9.44999002 144.77846936 9.44999002 144.77846936 7.26171875 146.23828125 C5.79293502 149.17584871 6.82653137 150.95429374 7.63671875 154.11328125 C10.48169239 166.78515925 11.17987342 180.37188994 9.26171875 193.23828125 C9.82375 192.92375 10.38578125 192.60921875 10.96484375 192.28515625 C31.31278143 181.92393645 57.25109864 181.76431247 79.26171875 186.23828125 C79.92171875 186.56828125 80.58171875 186.89828125 81.26171875 187.23828125 C78.725486 196.11509588 74.5362623 204.10298045 70.26171875 212.23828125 C69.90803223 212.91906738 69.5543457 213.59985352 69.18994141 214.30126953 C58.33166208 235.04700542 44.28262474 253.01294003 21.22314453 260.41503906 C17.85501327 261.46605122 14.47418156 262.47379558 11.09375 263.484375 C-0.79309835 267.05907347 -10.50531521 270.50059557 -18.73828125 280.23828125 C-19.06828125 280.89828125 -19.39828125 281.55828125 -19.73828125 282.23828125 C20.19200732 293.08830449 60.56630481 292.39671918 97.2890625 271.625 C108.16338028 265.22102935 117.65614514 257.45116925 126.80322266 248.77636719 C127.89269694 247.7458098 128.98482637 246.71805214 130.07958984 245.69311523 C131.13997497 244.69970348 132.19398381 243.69943079 133.24072266 242.69165039 C136.92472863 239.23828125 136.92472863 239.23828125 140.26171875 239.23828125 C136.94733749 247.51507866 131.85834078 253.49378263 125.70703125 259.7578125 C124.35008553 261.14776501 123.0234643 262.56713968 121.69921875 263.98828125 C94.40006757 292.61909834 57.20430571 307.97108688 17.9609375 309.421875 C-22.26832199 310.35472739 -62.01161479 296.88279517 -91.57421875 269.24609375 C-93.42953203 267.5247381 -95.32548999 265.94171034 -97.30078125 264.36328125 C-102.1157747 260.25869667 -105.85867208 255.2039193 -109.73828125 250.23828125 C-110.47175781 249.33207031 -111.20523438 248.42585937 -111.9609375 247.4921875 C-136.65984359 216.08493654 -146.17591507 175.91754686 -142.23828125 136.52734375 C-138.56006105 105.90246562 -126.38700344 76.34518465 -105.73828125 53.23828125 C-104.8978125 52.26632813 -104.05734375 51.294375 -103.19140625 50.29296875 C-77.86874705 21.41365222 -38.92480001 0.36366734 0 0 Z M-3.73828125 155.23828125 C-21.86757682 173.89795515 -29.97671072 197.97843546 -31.99609375 223.49609375 C-31.68724748 226.78109495 -30.7040698 228.45863643 -28.86328125 231.17578125 C-22.651778 240.40301434 -22.42606034 251.16897555 -24.4140625 261.87890625 C-25.11774403 264.69363236 -25.87212097 267.46966178 -26.73828125 270.23828125 C-27.39828125 270.23828125 -28.05828125 270.23828125 -28.73828125 270.23828125 C-28.83625 269.45066406 -28.93421875 268.66304688 -29.03515625 267.8515625 C-30.85690289 254.58108052 -34.38888386 242.50963084 -41.73828125 231.23828125 C-42.72828125 230.57828125 -43.71828125 229.91828125 -44.73828125 229.23828125 C-43.34966563 232.81690259 -41.81038192 236.31113468 -40.2253418 239.80664062 C-36.46413535 248.17326411 -33.25016333 256.20259427 -32.26171875 265.3984375 C-32.18284424 266.12546875 -32.10396973 266.8525 -32.02270508 267.6015625 C-31.87718224 269.04366337 -31.75130724 270.48791156 -31.6472168 271.93359375 C-31.47979008 274.16524602 -31.47979008 274.16524602 -30.73828125 277.23828125 C-28.75703302 278.47494129 -28.75703302 278.47494129 -26.73828125 279.23828125 C-26.26519531 278.04074219 -25.79210937 276.84320313 -25.3046875 275.609375 C-12.01922142 242.63228165 9.06467674 219.40684918 41.26171875 204.23828125 C37.14135125 202.86482542 34.65884327 204.42513501 30.88671875 206.11328125 C29.82022095 206.58713257 29.82022095 206.58713257 28.73217773 207.07055664 C8.6607347 216.32481264 -4.5142369 232.21202524 -17.73828125 249.23828125 C-22.35177854 235.83556649 -13.128239 217.35724221 -8.32568359 204.99829102 C-1.93317085 188.41682995 -1.33340371 173.86602633 -1.73828125 156.23828125 C-2.39828125 155.90828125 -3.05828125 155.57828125 -3.73828125 155.23828125 Z M-46.73828125 226.23828125 C-46.40828125 227.22828125 -46.07828125 228.21828125 -45.73828125 229.23828125 C-45.73828125 228.24828125 -45.73828125 227.25828125 -45.73828125 226.23828125 C-46.06828125 226.23828125 -46.39828125 226.23828125 -46.73828125 226.23828125 Z " fill="#47B714" transform="translate(173.73828125,25.76171875)"/>
<path d="M0 0 C0.69360626 0.00304138 1.38721252 0.00608276 2.10183716 0.00921631 C13.8543239 0.08502902 24.9971074 1.12660598 36.3125 4.4375 C37.03888672 4.64648926 37.76527344 4.85547852 38.51367188 5.07080078 C55.21496451 10.04319723 70.02845571 18.22256732 83.3125 29.4375 C84.25609375 30.21738281 85.1996875 30.99726562 86.171875 31.80078125 C110.09811118 52.4489879 125.53432445 84.0351544 128.3125 115.4375 C130.37273159 150.26437133 121.28632371 184.01463816 97.9375 210.5625 C96.40454318 212.19571906 94.86261026 213.82055248 93.3125 215.4375 C92.50425781 216.32050781 91.69601562 217.20351563 90.86328125 218.11328125 C73.38871139 236.58042757 52.11378873 244.15383268 28.3125 251.4375 C29.76702003 247.64989757 31.44179373 246.51815699 35.046875 244.7734375 C36.00706543 244.29616211 36.96725586 243.81888672 37.95654297 243.32714844 C38.98150879 242.82731445 40.00647461 242.32748047 41.0625 241.8125 C50.48832604 237.05657664 59.06051044 232.01207285 67.3125 225.4375 C68.12332031 224.8084375 68.93414062 224.179375 69.76953125 223.53125 C89.97850283 206.82611062 102.14370853 180.88380311 106.3125 155.4375 C106.50779297 154.31794922 106.50779297 154.31794922 106.70703125 153.17578125 C110.92093602 123.67844786 102.28052551 93.39081089 85.1875 69.3125 C65.84216878 44.86215082 39.77935319 28.87150498 8.8125 24.125 C-22.58604983 20.68043335 -54.22960178 28.29889944 -79.3125 48 C-81.47754086 49.76922132 -83.5936718 51.58477929 -85.6875 53.4375 C-86.51507813 54.16453125 -87.34265625 54.8915625 -88.1953125 55.640625 C-108.06304791 74.33152591 -117.15984565 99.55810913 -122.03979492 125.73022461 C-122.22775635 126.71772705 -122.41571777 127.70522949 -122.609375 128.72265625 C-122.77018555 129.60832275 -122.93099609 130.49398926 -123.09667969 131.40649414 C-123.29165039 132.07672607 -123.48662109 132.74695801 -123.6875 133.4375 C-124.3475 133.7675 -125.0075 134.0975 -125.6875 134.4375 C-132.11505219 115.15484344 -122.31486793 87.39428832 -113.8125 70.1875 C-98.08770793 39.5416924 -72.23751464 17.26860424 -39.625 6.125 C-38.9542041 5.89449951 -38.2834082 5.66399902 -37.59228516 5.42651367 C-25.18191179 1.43107188 -12.99625587 -0.12197533 0 0 Z " fill="#49B818" transform="translate(200.6875,43.5625)"/>
<path d="M0 0 C4.8205859 0.59559362 8.47251533 2.63589087 12.625 5 C13.68569702 5.60231445 13.68569702 5.60231445 14.76782227 6.21679688 C21.05772239 9.87917996 26.61679082 14.09453997 32 19 C32.82371094 19.73089844 33.64742187 20.46179688 34.49609375 21.21484375 C40.28289522 26.62155974 45.28652598 32.46847791 46.33203125 40.57421875 C46.38638667 43.80095417 46.23688629 46.85541857 45.58203125 50.01953125 C44.39253451 55.80213419 46.19011335 59.40269854 48.87109375 64.58203125 C50 67 50 67 50 70 C52.54055632 69.25393738 52.54055632 69.25393738 55 67 C55.88376245 64.51367956 55.88376245 64.51367956 56.5 61.6875 C57.92709294 55.76857355 59.77575849 52.23722881 64.9140625 48.671875 C75.65084215 42.5471141 89.78534945 40.44125174 102 40 C102.77472656 39.97164062 103.54945313 39.94328125 104.34765625 39.9140625 C109.63426908 39.82338303 114.75774523 40.33431685 120 41 C120 41.99 120 42.98 120 44 C119.29093506 44.06993164 118.58187012 44.13986328 117.85131836 44.21191406 C104.59962791 45.54836343 91.70941053 46.86839295 79 51 C82.00756602 50.50023978 85.01369237 49.99757014 88.015625 49.46484375 C97.73401717 47.88032329 107.17706775 47.79953199 117 48 C117 48.99 117 49.98 117 51 C116.04867187 51.14695312 116.04867187 51.14695312 115.078125 51.296875 C108.25825299 52.38956168 101.46899939 53.62905194 94.6875 54.9375 C93.84026367 55.09508789 92.99302734 55.25267578 92.12011719 55.41503906 C87.05678573 56.40859093 82.66603979 57.78977062 78 60 C79.07894531 59.71125 80.15789062 59.4225 81.26953125 59.125 C92.69189118 56.23918873 103.24936942 55.53101696 115 56 C115 56.66 115 57.32 115 58 C114.2471875 58.17015625 113.494375 58.3403125 112.71875 58.515625 C109.14291493 59.33147087 105.57044042 60.16092039 102 61 C101.31583008 61.16048828 100.63166016 61.32097656 99.92675781 61.48632812 C97.82430663 61.98343063 95.72445701 62.49041349 93.625 63 C92.97208984 63.1537207 92.31917969 63.30744141 91.64648438 63.46582031 C87.17214017 64.56506154 83.17669118 66.10052288 79 68 C79.57331055 67.84853516 80.14662109 67.69707031 80.73730469 67.54101562 C101.79900736 62.04959696 101.79900736 62.04959696 112 63 C112 63.99 112 64.98 112 66 C111.45698242 66.12528076 110.91396484 66.25056152 110.35449219 66.37963867 C93.6368441 70.22404306 93.6368441 70.22404306 77.9921875 77.125 C74.18891745 78.79545587 70.06447194 78.45733361 66 78 C63.99248185 77.01517978 61.99065541 76.01847486 60 75 C57.18827127 75.54018811 57.18827127 75.54018811 55 77 C53.53121627 79.93756746 54.56481262 81.71601249 55.375 84.875 C57.29616652 93.4497478 57.79694479 101.91080265 57.94921875 110.68212891 C57.99456184 112.75177939 58.1024233 114.81984255 58.21875 116.88671875 C58.25017405 120.26873234 58.13408103 122.81155906 57 126 C54.5246949 128.44897206 51.98295753 130.13538143 49.01171875 131.9453125 C43.96106651 135.39102337 40.63494093 140.11751144 37 145 C35.63989995 140.91969984 37.18868191 138.47144747 38.75 134.6875 C44.98358256 118.57716822 45.39389981 104.14979194 45 87 C25.04973624 106.64438238 19.78667132 130.14964188 16 157 C15.50371094 156.62488281 15.00742188 156.24976563 14.49609375 155.86328125 C10.04258476 152.50836081 5.54995902 149.22288764 1 146 C7.55735319 118.19923993 19.52832883 94.36573619 42 76 C41.57310022 73.83034464 41.11081654 71.67853889 40.59765625 69.52734375 C40.21920479 67.92696406 39.8874426 66.31421213 39.62109375 64.69140625 C39.06108603 62.2882235 38.62721939 60.87222685 37 59 C33.96795418 58.09655611 31.1625755 57.75244853 28.0078125 57.546875 C23.1363793 56.66115987 20.83351062 54.15747276 18 50.22265625 C17.34 49.17980469 16.68 48.13695312 16 47.0625 C10.96107129 39.39513928 4.62283091 33.29260666 -2 27 C-3.00262504 26.00263195 -4.00331428 25.00330333 -5 24 C-4.34 23.34 -3.68 22.68 -3 22 C6.54447457 27.50498238 14.25231047 34.25231047 22 42 C15.76438252 33.18926404 8.06491913 26.37980581 -0.1875 19.5 C-1.115625 18.675 -2.04375 17.85 -3 17 C-3 16.34 -3 15.68 -3 15 C1.72449579 15.50430011 4.89657995 17.68942843 8.625 20.4375 C9.23166504 20.87690918 9.83833008 21.31631836 10.46337891 21.76904297 C16.35357357 26.11381343 21.72077545 30.936254 27 36 C21.86936423 28.23075155 15.17505378 22.77183794 8 17 C6.98808594 16.18144531 5.97617188 15.36289063 4.93359375 14.51953125 C2.63076055 12.66874781 0.32071192 10.82828095 -2 9 C-1.67 8.34 -1.34 7.68 -1 7 C12.44152385 10.95105354 24.49409243 21.98025959 34 32 C25.30057122 21.62645434 15.71918235 12.92121449 4.52172852 5.32543945 C2.98124328 4.26364205 1.48579534 3.1370667 0 2 C0 1.34 0 0.68 0 0 Z " fill="#F7A63E" transform="translate(126,95)"/>
<path d="M0 0 C0 0.66 0 1.32 0 2 C-6.83782175 4.4420792 -13.79431807 4.62022758 -21 5 C-21 4.34 -21 3.68 -21 3 C-26.94 3.495 -26.94 3.495 -33 4 C-23.86080417 -2.09279722 -10.53115749 -0.1964361 0 0 Z " fill="#FAC077" transform="translate(241,151)"/>
<path d="M0 0 C5.94 0 11.88 0 18 0 C18 0.99 18 1.98 18 3 C4.64772727 5.49242424 4.64772727 5.49242424 -2 5 C-2.66 4.34 -3.32 3.68 -4 3 C-2.68 2.67 -1.36 2.34 0 2 C0 1.34 0 0.68 0 0 Z " fill="#F9BF75" transform="translate(225,143)"/>
<path d="M0 0 C0 0.66 0 1.32 0 2 C1.32 2.66 2.64 3.32 4 4 C-3.26 6.31 -10.52 8.62 -18 11 C-15.69245344 6.38490688 -13.43354637 5.32432993 -9 3.25 C-8.35804688 2.93417969 -7.71609375 2.61835938 -7.0546875 2.29296875 C-2.30992965 0 -2.30992965 0 0 0 Z " fill="#7BCA57" transform="translate(247,284)"/>
<path d="M0 0 C0 0.99 0 1.98 0 3 C-2.08047297 3.5321441 -4.16452293 4.05031786 -6.25 4.5625 C-7.41015625 4.85253906 -8.5703125 5.14257812 -9.765625 5.44140625 C-12.72090983 5.95179964 -14.24434101 6.02996165 -17 5 C-16.01 5 -15.02 5 -14 5 C-14 4.34 -14 3.68 -14 3 C-16.64 3 -19.28 3 -22 3 C-15.22460906 -0.90887939 -7.56495747 -0.11016928 0 0 Z " fill="#FAC889" transform="translate(238,158)"/>
<path d="M0 0 C0.33 0 0.66 0 1 0 C1 3.96 1 7.92 1 12 C1.66 12 2.32 12 3 12 C3.33 11.34 3.66 10.68 4 10 C3.88487847 11.72985242 3.75744323 13.45888751 3.625 15.1875 C3.55539063 16.15042969 3.48578125 17.11335938 3.4140625 18.10546875 C2.99784147 21.01508938 2.20125904 23.32890774 1 26 C-1.46081877 22.30877185 -1.26139209 19.51240672 -1.1875 15.25 C-1.18685547 14.5590625 -1.18621094 13.868125 -1.18554688 13.15625 C-1.14770858 8.6829226 -0.72221779 4.41419513 0 0 Z " fill="#6BC443" transform="translate(75,152)"/>
<path d="M0 0 C0.66 0.33 1.32 0.66 2 1 C-2.0587813 5.83452107 -6.31762196 10.44622971 -10.75 14.9375 C-12.13445312 16.34322266 -12.13445312 16.34322266 -13.546875 17.77734375 C-16 20 -16 20 -19 21 C-15.4060193 12.5412388 -7.03835174 5.66128292 0 0 Z " fill="#87CF66" transform="translate(120,72)"/>
<path d="M0 0 C4.14298667 0.59834725 7.18194377 2.00664285 10.8125 4.0625 C11.78832031 4.61035156 12.76414063 5.15820312 13.76953125 5.72265625 C14.50558594 6.14417969 15.24164063 6.56570312 16 7 C14.68 7.33 13.36 7.66 12 8 C12.99 9.485 12.99 9.485 14 11 C10.69291925 9.45463516 7.75273101 7.57205999 4.75 5.5 C3.85796875 4.8915625 2.9659375 4.283125 2.046875 3.65625 C1.37140625 3.1096875 0.6959375 2.563125 0 2 C0 1.34 0 0.68 0 0 Z " fill="#F9BF75" transform="translate(126,95)"/>
<path d="M0 0 C0.66 0.33 1.32 0.66 2 1 C-11.12344656 16.42004971 -11.12344656 16.42004971 -17 19 C-15.60652624 15.84795019 -13.97514921 13.73828227 -11.5234375 11.328125 C-10.51796875 10.33232422 -10.51796875 10.33232422 -9.4921875 9.31640625 C-8.79351562 8.63449219 -8.09484375 7.95257813 -7.375 7.25 C-6.66859375 6.55261719 -5.9621875 5.85523438 -5.234375 5.13671875 C-3.49401297 3.41987512 -1.74915019 1.70788168 0 0 Z " fill="#82CD60" transform="translate(186,246)"/>
<path d="M0 0 C5.80342274 1.48805711 10.17590879 4.59097555 15 8 C14.01 8.495 14.01 8.495 13 9 C10.875 8.0625 10.875 8.0625 9 7 C9 7.66 9 8.32 9 9 C5.05860922 7.33248852 2.2107188 4.77289351 -1 2 C-0.67 1.34 -0.34 0.68 0 0 Z " fill="#FAC27B" transform="translate(125,102)"/>
<path d="M0 0 C1.6256807 0.30893932 3.25052748 0.6222695 4.875 0.9375 C5.77992188 1.11152344 6.68484375 1.28554688 7.6171875 1.46484375 C10 2 10 2 12 3 C12 3.66 12 4.32 12 5 C9.12476286 4.68957083 6.24982273 4.37672481 3.375 4.0625 C2.56675781 3.97548828 1.75851563 3.88847656 0.92578125 3.79882812 C-3.41041058 3.32290463 -7.70390836 2.77162811 -12 2 C-12 1.67 -12 1.34 -12 1 C-8.04 1 -4.08 1 0 1 C0 0.67 0 0.34 0 0 Z " fill="#A8DC91" transform="translate(236,36)"/>
<path d="M0 0 C0.66 0 1.32 0 2 0 C2.04953687 4.19920237 2.08578411 8.39824869 2.10986328 12.59765625 C2.11990427 14.02542078 2.13353981 15.45316483 2.15087891 16.88085938 C2.17521152 18.93624941 2.18650202 20.99136692 2.1953125 23.046875 C2.20578613 24.28276367 2.21625977 25.51865234 2.22705078 26.79199219 C2.01298081 29.81659371 1.59653159 31.46985651 0 34 C0.00523682 33.10168457 0.01047363 32.20336914 0.01586914 31.27783203 C0.03289725 27.94937501 0.04544337 24.62096419 0.05493164 21.29248047 C0.05996474 19.8510668 0.06679173 18.40965824 0.07543945 16.96826172 C0.08754983 14.89809915 0.09323847 12.82800399 0.09765625 10.7578125 C0.10289307 9.5114502 0.10812988 8.26508789 0.11352539 6.98095703 C0.20816587 4.07228894 0.20816587 4.07228894 -1 2 C-0.67 1.34 -0.34 0.68 0 0 Z " fill="#FCDFBB" transform="translate(171,178)"/>
<path d="M0 0 C5.27710354 2.3439244 9.15080717 4.66965806 13 9 C11.02 8.34 9.04 7.68 7 7 C6.67 7.66 6.34 8.32 6 9 C0.125 4.375 0.125 4.375 -1 1 C-0.67 0.67 -0.34 0.34 0 0 Z " fill="#FAC889" transform="translate(122,117)"/>
<path d="M0 0 C0.66 0.66 1.32 1.32 2 2 C0.68 4.31 -0.64 6.62 -2 9 C-2.66 8.34 -3.32 7.68 -4 7 C-4.99 7.99 -5.98 8.98 -7 10 C-7.66 9.67 -8.32 9.34 -9 9 C-6.03 6.03 -3.06 3.06 0 0 Z " fill="#9DD882" transform="translate(312,264)"/>
<path d="M0 0 C0.33 0 0.66 0 1 0 C0.67 6.93 0.34 13.86 0 21 C0.66 21 1.32 21 2 21 C1.67 22.65 1.34 24.3 1 26 C-1.46081877 22.30877185 -1.26139209 19.51240672 -1.1875 15.25 C-1.18685547 14.5590625 -1.18621094 13.868125 -1.18554688 13.15625 C-1.14770858 8.6829226 -0.72221779 4.41419513 0 0 Z " fill="#C0E6AF" transform="translate(75,152)"/>
<path d="M0 0 C4.51478398 0.53115106 7.34666857 2.36620292 11 5 C10.01 5.495 10.01 5.495 9 6 C8.34 5.67 7.68 5.34 7 5 C7 5.66 7 6.32 7 7 C4.13302508 5.71480435 2.02392288 4.42870746 0 2 C0 1.34 0 0.68 0 0 Z " fill="#FBD09A" transform="translate(123,110)"/>
<path d="M0 0 C-1.33934244 2.67868487 -2.51692397 2.74954078 -5.3125 3.6875 C-6.09238281 3.95949219 -6.87226563 4.23148438 -7.67578125 4.51171875 C-10.18274511 5.03839183 -11.60132343 4.8178554 -14 4 C-13.67 3.34 -13.34 2.68 -13 2 C-11.1875 1.4375 -11.1875 1.4375 -9 1 C-8.360625 0.814375 -7.72125 0.62875 -7.0625 0.4375 C-4.66684693 -0.07066883 -2.44199733 -0.06783326 0 0 Z " fill="#BCE4AA" transform="translate(229,225)"/>
<path d="M0 0 C0.33 0 0.66 0 1 0 C1.33 3.96 1.66 7.92 2 12 C2.66 11.67 3.32 11.34 4 11 C2.25 14.875 2.25 14.875 0 16 C-0.9360342 12.20732808 -0.98276252 9.06325435 -0.5625 5.1875 C-0.40974609 3.72376953 -0.40974609 3.72376953 -0.25390625 2.23046875 C-0.12822266 1.12638672 -0.12822266 1.12638672 0 0 Z " fill="#B7E2A4" transform="translate(155,260)"/>
<path d="M0 0 C3.82097239 0.53069061 6.06171403 1.49701566 9 4 C7.02 4.99 7.02 4.99 5 6 C3.2925002 4.71937515 1.62626404 3.38232443 0 2 C0 1.34 0 0.68 0 0 Z " fill="#FACB90" transform="translate(126,95)"/>
<path d="M0 0 C2 1 2 1 3 3 C-1.455 4.485 -1.455 4.485 -6 6 C-3.62264151 1.24528302 -3.62264151 1.24528302 0 0 Z " fill="#BFE5AE" transform="translate(235,289)"/>
<path d="M0 0 C0 0.66 0 1.32 0 2 C1.32 2.33 2.64 2.66 4 3 C-0.455 3.495 -0.455 3.495 -5 4 C-4.67 3.01 -4.34 2.02 -4 1 C-2 0 -2 0 0 0 Z " fill="#8FD371" transform="translate(241,287)"/>
<path d="M0 0 C2.0625 0.4375 2.0625 0.4375 4 1 C1.03 3.475 1.03 3.475 -2 6 C-1.125 1.125 -1.125 1.125 0 0 Z " fill="#F9B55E" transform="translate(189,145)"/>
<path d="M0 0 C2.02045442 0.60183749 4.02111039 1.27306096 6 2 C6.33 2.66 6.66 3.32 7 4 C5.35 4.33 3.7 4.66 2 5 C1.01 3.68 0.02 2.36 -1 1 C-0.67 0.67 -0.34 0.34 0 0 Z " fill="#FCDBB2" transform="translate(125,102)"/>
<path d="M0 0 C0 0.66 0 1.32 0 2 C-3.63 1.67 -7.26 1.34 -11 1 C-11 0.67 -11 0.34 -11 0 C-7.01803543 -1.05404945 -4.01804691 -0.84098656 0 0 Z " fill="#CAE9BC" transform="translate(248,39)"/>
<path d="M0 0 C0.97140086 3.02213602 1.19248372 5.0187907 0 8 C-0.99 8.66 -1.98 9.32 -3 10 C-2.39009109 6.44219804 -1.4216319 3.3171411 0 0 Z " fill="#F4CB8C" transform="translate(165,230)"/>
<path d="M0 0 C1.98 0.99 3.96 1.98 6 3 C4.02 3.99 4.02 3.99 2 5 C1.01 4.01 0.02 3.02 -1 2 C-0.67 1.34 -0.34 0.68 0 0 Z " fill="#FBD7A8" transform="translate(122,117)"/>
</svg>
